<svg width="238" height="20" viewBox="0 0 238 20" fill="none" xmlns="http://www.w3.org/2000/svg">
<path d="M141.243 10.0412C141.243 7.65941 140.222 5.95809 138.225 4.97473C137.049 4.44841 135.769 4.19594 134.482 4.23637H129.796C129.764 4.23592 129.731 4.24201 129.7 4.25429C129.67 4.26657 129.642 4.28478 129.619 4.30789C129.595 4.331 129.577 4.35855 129.564 4.38891C129.551 4.41927 129.545 4.45185 129.545 4.48475V19.7047C129.545 19.7376 129.551 19.7702 129.564 19.8005C129.577 19.8309 129.595 19.8584 129.619 19.8815C129.642 19.9046 129.67 19.9229 129.7 19.9352C129.731 19.9474 129.764 19.9535 129.796 19.9531H131.263C131.296 19.9535 131.329 19.9474 131.359 19.9352C131.39 19.9229 131.417 19.9046 131.441 19.8815C131.464 19.8584 131.483 19.8309 131.496 19.8005C131.508 19.7702 131.515 19.7376 131.515 19.7047V6.43445C131.515 6.36857 131.541 6.3054 131.588 6.25881C131.634 6.21223 131.697 6.18606 131.763 6.18606H134.465C135.445 6.14088 136.423 6.31526 137.326 6.69646C138.616 7.34636 139.246 8.4386 139.246 10.0344C139.246 11.6303 138.616 12.7327 137.33 13.3724C136.649 13.7127 135.503 13.8862 133.948 13.8862H132.627C132.578 13.8856 132.529 13.9002 132.487 13.9278C132.445 13.9555 132.413 13.9951 132.394 14.0414C132.376 14.0877 132.371 14.1385 132.382 14.1873C132.393 14.2361 132.418 14.2806 132.454 14.3149L138.14 19.8748C138.163 19.8979 138.191 19.9162 138.221 19.9285C138.251 19.9407 138.284 19.9468 138.317 19.9463H140.467C140.517 19.9468 140.566 19.9323 140.608 19.9046C140.649 19.8769 140.681 19.8374 140.7 19.7911C140.719 19.7448 140.723 19.6939 140.713 19.6451C140.702 19.5963 140.677 19.5519 140.641 19.5175L136.986 15.9618C136.955 15.9317 136.931 15.8937 136.919 15.8518C136.907 15.8099 136.906 15.7655 136.916 15.723C136.926 15.6805 136.948 15.6416 136.978 15.61C137.008 15.5785 137.046 15.5554 137.088 15.5433C137.789 15.3476 138.452 15.0372 139.052 14.6246C140.505 13.6038 141.243 12.0624 141.243 10.0412Z" fill="#FFCA26"/>
<path d="M192.248 6.55016C191.314 6.53166 190.387 6.70649 189.524 7.06369C188.66 7.42088 187.881 7.9527 187.233 8.62575C186.041 9.86972 185.376 11.5257 185.376 13.2482C185.376 14.9707 186.041 16.6267 187.233 17.8707C187.878 18.5461 188.656 19.0809 189.518 19.4416C190.38 19.8022 191.307 19.981 192.241 19.9667C193.099 19.9569 193.946 19.7771 194.733 19.4378C195.52 19.0984 196.232 18.6063 196.828 17.9898C196.944 17.8741 197.056 17.755 197.168 17.6291V19.4087C197.168 19.5151 197.211 19.6173 197.286 19.6926C197.361 19.7679 197.463 19.8102 197.57 19.8102H198.393C198.5 19.8102 198.602 19.7679 198.677 19.6926C198.753 19.6173 198.795 19.5151 198.795 19.4087V13.2533C198.797 11.5053 198.116 9.82556 196.897 8.57306C195.677 7.32056 194.016 6.59457 192.269 6.55016H192.248ZM192.065 18.3266C190.893 18.3241 189.758 17.9155 188.854 17.1704C187.95 16.4254 187.331 15.3899 187.105 14.2403C186.878 13.0908 187.057 11.8981 187.611 10.8656C188.164 9.83297 189.059 9.02425 190.142 8.57709C191.225 8.12993 192.43 8.07196 193.551 8.41308C194.671 8.7542 195.64 9.47332 196.29 10.448C196.94 11.4226 197.233 12.5926 197.117 13.7586C197.002 14.9246 196.486 16.0147 195.658 16.8431C195.192 17.3231 194.633 17.7024 194.015 17.9576C193.397 18.2128 192.733 18.3384 192.065 18.3266Z" fill="#FFCA26"/>
<path d="M216.682 8.17652C217.35 8.16441 218.013 8.28953 218.631 8.54414C219.248 8.79874 219.807 9.1774 220.272 9.65668C220.712 10.1959 221.08 10.7894 221.368 11.4226C221.441 11.5714 221.554 11.6966 221.695 11.7839C221.836 11.8711 221.998 11.9169 222.164 11.916H222.902C222.947 11.916 222.991 11.9056 223.031 11.8858C223.072 11.866 223.107 11.8372 223.134 11.8017C223.161 11.7662 223.18 11.7249 223.189 11.681C223.198 11.6371 223.196 11.5918 223.185 11.5485L223.158 11.4532C222.775 10.0514 221.948 8.81131 220.801 7.91877C219.654 7.02623 218.249 6.52928 216.796 6.50237C215.343 6.47546 213.921 6.92003 212.741 7.76949C211.562 8.61895 210.69 9.82758 210.256 11.2143C209.821 12.601 209.848 14.0912 210.331 15.4617C210.814 16.8321 211.729 18.0091 212.937 18.8161C214.146 19.6232 215.583 20.017 217.035 19.9386C218.486 19.8601 219.872 19.3137 220.987 18.381C222.024 17.5147 222.773 16.3527 223.134 15.0498L223.161 14.9546C223.172 14.9113 223.174 14.866 223.165 14.8221C223.156 14.7782 223.137 14.7369 223.11 14.7014C223.083 14.6659 223.048 14.6371 223.008 14.6173C222.967 14.5975 222.923 14.5871 222.879 14.5871H222.007C221.884 14.5872 221.762 14.6225 221.657 14.6887C221.553 14.7549 221.469 14.8495 221.415 14.9614C221.116 15.6361 220.729 16.2688 220.265 16.843C219.675 17.4351 218.948 17.8724 218.148 18.1161C217.349 18.3598 216.501 18.4024 215.681 18.2401C214.861 18.0778 214.094 17.7157 213.447 17.1857C212.801 16.6558 212.295 15.9745 211.975 15.2023C211.654 14.43 211.53 13.5907 211.612 12.7588C211.694 11.9268 211.98 11.1279 212.444 10.433C212.909 9.73803 213.538 9.16848 214.275 8.77487C215.013 8.38125 215.836 8.17573 216.672 8.17652H216.682Z" fill="#FFCA26"/>
<path d="M235.37 8.73798C234.853 8.11979 234.207 7.62252 233.478 7.28129C232.748 6.94007 231.953 6.76322 231.147 6.76322C230.342 6.76322 229.546 6.94007 228.816 7.28129C228.087 7.62252 227.441 8.11979 226.924 8.73798L226.747 8.94213V4.72968C226.747 4.66371 226.734 4.5984 226.709 4.53749C226.684 4.47658 226.647 4.42129 226.6 4.3748C226.553 4.32831 226.497 4.29153 226.436 4.2666C226.375 4.24166 226.31 4.22905 226.244 4.2295H225.655C225.589 4.22905 225.524 4.24166 225.463 4.2666C225.402 4.29153 225.346 4.32831 225.299 4.3748C225.253 4.42129 225.215 4.47658 225.19 4.53749C225.165 4.5984 225.152 4.66371 225.152 4.72968V19.4528C225.152 19.5188 225.165 19.5841 225.19 19.645C225.215 19.706 225.253 19.7613 225.299 19.8077C225.346 19.8542 225.402 19.891 225.463 19.9159C225.524 19.9409 225.589 19.9535 225.655 19.953H226.254C226.387 19.953 226.514 19.9003 226.608 19.8065C226.702 19.7127 226.754 19.5855 226.754 19.4528V13.4302C226.749 12.1311 227.221 10.8754 228.081 9.90167C228.456 9.45351 228.924 9.09304 229.453 8.84568C229.983 8.59833 230.56 8.47014 231.144 8.47014C231.728 8.47014 232.305 8.59833 232.834 8.84568C233.363 9.09304 233.831 9.45351 234.206 9.90167C235.065 10.8804 235.534 12.1414 235.523 13.4438V19.446C235.523 19.5787 235.576 19.7059 235.669 19.7997C235.763 19.8935 235.89 19.9462 236.023 19.9462H236.639C236.705 19.9467 236.77 19.9341 236.831 19.9091C236.892 19.8842 236.948 19.8474 236.995 19.8009C237.042 19.7544 237.079 19.6991 237.104 19.6382C237.129 19.5773 237.142 19.512 237.142 19.446V13.4472C237.155 11.7122 236.523 10.0342 235.37 8.73798Z" fill="#FFCA26"/>
<path d="M156.122 11.899C156.172 11.8972 156.221 11.8845 156.265 11.8618C156.309 11.8391 156.348 11.807 156.378 11.7678C156.409 11.7285 156.43 11.6831 156.441 11.6346C156.453 11.5862 156.453 11.5359 156.442 11.4873C156.133 10.348 155.531 9.3098 154.694 8.47677C153.858 7.64374 152.817 7.04511 151.676 6.74083C150.536 6.43656 149.335 6.43731 148.195 6.74304C147.055 7.04876 146.015 7.64872 145.18 8.48281C144.545 9.10395 144.04 9.84478 143.693 10.6624C143.347 11.4801 143.166 12.3584 143.161 13.2464C143.156 14.1345 143.327 15.0147 143.665 15.8361C144.002 16.6575 144.499 17.4039 145.127 18.0319C145.755 18.66 146.501 19.1574 147.323 19.4952C148.144 19.833 149.024 20.0046 149.912 20C150.8 19.9955 151.678 19.8148 152.496 19.4686C153.314 19.1224 154.055 18.6174 154.676 17.9829C155.463 17.2707 156.019 16.3392 156.272 15.3085C156.416 14.4315 156.504 13.5461 156.534 12.6578C156.534 12.5676 156.498 12.481 156.435 12.4172C156.371 12.3534 156.284 12.3176 156.194 12.3176H155.248C155.158 12.3176 155.071 12.3534 155.007 12.4172C154.944 12.481 154.908 12.5676 154.908 12.6578C154.901 13.438 154.816 14.2155 154.653 14.9784C154.463 15.7057 154.085 16.37 153.557 16.9043C152.834 17.623 151.914 18.1112 150.913 18.3071C149.913 18.5029 148.877 18.3977 147.936 18.0048C146.995 17.6118 146.192 16.9487 145.628 16.0993C145.064 15.2499 144.765 14.2524 144.768 13.2329C144.766 12.8523 144.804 12.4726 144.88 12.0998C144.891 12.0476 144.92 12.0008 144.961 11.9673C145.003 11.9338 145.055 11.9157 145.108 11.9161L156.122 11.899ZM149.923 8.0779C150.602 8.0659 151.276 8.19316 151.904 8.45182C152.532 8.71049 153.1 9.09507 153.574 9.58185C153.711 9.71842 153.841 9.8627 153.962 10.014C153.989 10.0483 154.006 10.0897 154.011 10.1333C154.017 10.1769 154.009 10.2211 153.99 10.2608C153.972 10.3004 153.942 10.3341 153.905 10.3578C153.868 10.3816 153.825 10.3945 153.781 10.3951H146.068C146.024 10.3951 145.98 10.3826 145.943 10.3592C145.905 10.3357 145.875 10.3021 145.856 10.2623C145.837 10.2225 145.829 10.178 145.834 10.1341C145.839 10.0902 145.856 10.0486 145.884 10.014C146.006 9.86427 146.136 9.72136 146.272 9.58526C146.744 9.09688 147.312 8.71103 147.941 8.4517C148.569 8.19237 149.243 8.06513 149.923 8.0779Z" fill="#FFCA26"/>
<path d="M183 11.899C183.05 11.8972 183.098 11.8845 183.142 11.8618C183.187 11.8391 183.225 11.807 183.256 11.7678C183.286 11.7285 183.308 11.6831 183.319 11.6346C183.33 11.5862 183.33 11.5359 183.32 11.4873C183.011 10.348 182.408 9.3098 181.572 8.47677C180.735 7.64374 179.695 7.04511 178.554 6.74083C177.413 6.43656 176.213 6.43731 175.073 6.74304C173.932 7.04876 172.892 7.64872 172.057 8.48281C171.422 9.10395 170.917 9.84478 170.571 10.6624C170.224 11.4801 170.043 12.3584 170.038 13.2464C170.033 14.1345 170.205 15.0147 170.542 15.8361C170.88 16.6575 171.377 17.4039 172.005 18.0319C172.633 18.66 173.379 19.1574 174.2 19.4952C175.021 19.833 175.901 20.0046 176.789 20C177.678 19.9955 178.556 19.8148 179.374 19.4686C180.191 19.1224 180.932 18.6174 181.554 17.9829C182.341 17.2707 182.896 16.3392 183.15 15.3085C183.294 14.4316 183.381 13.5461 183.408 12.6578C183.408 12.5676 183.372 12.481 183.309 12.4172C183.245 12.3534 183.158 12.3176 183.068 12.3176H182.122C182.032 12.3176 181.945 12.3534 181.881 12.4172C181.818 12.481 181.782 12.5676 181.782 12.6578C181.775 13.438 181.69 14.2155 181.527 14.9784C181.337 15.7057 180.959 16.37 180.431 16.9043C179.708 17.6207 178.788 18.1068 177.789 18.3013C176.789 18.4959 175.755 18.3901 174.815 17.9974C173.876 17.6047 173.074 16.9427 172.511 16.0947C171.947 15.2468 171.647 14.251 171.649 13.2329C171.647 12.8523 171.685 12.4726 171.761 12.0998C171.772 12.0476 171.801 12.0008 171.842 11.9673C171.884 11.9338 171.936 11.9157 171.989 11.9161L183 11.899ZM176.8 8.0779C177.479 8.0659 178.154 8.19316 178.782 8.45182C179.41 8.71049 179.978 9.09507 180.451 9.58185C180.589 9.71842 180.718 9.8627 180.839 10.014C180.867 10.0483 180.884 10.0897 180.889 10.1333C180.894 10.1769 180.887 10.2211 180.868 10.2608C180.849 10.3004 180.82 10.3341 180.783 10.3578C180.746 10.3816 180.703 10.3945 180.659 10.3951H172.945C172.901 10.3951 172.858 10.3826 172.82 10.3592C172.783 10.3357 172.753 10.3021 172.734 10.2623C172.714 10.2225 172.707 10.178 172.712 10.1341C172.717 10.0902 172.734 10.0486 172.761 10.014C172.884 9.86427 173.013 9.72136 173.149 9.58526C173.622 9.09688 174.19 8.71103 174.818 8.4517C175.446 8.19237 176.121 8.06513 176.8 8.0779Z" fill="#FFCA26"/>
<path d="M167.242 12.4809C166.699 11.7001 165.928 11.106 165.034 10.7796C164.528 10.5744 163.99 10.4592 163.445 10.4393C163.075 10.4525 162.712 10.3317 162.424 10.0991C162.308 9.98904 162.215 9.85605 162.152 9.70847C162.09 9.56089 162.058 9.40191 162.06 9.24158V9.14973C162.06 9.05948 162.096 8.97292 162.16 8.90911C162.224 8.8453 162.31 8.80947 162.4 8.80947H165.766C165.856 8.80947 165.942 8.77361 166.006 8.7098C166.07 8.64599 166.106 8.55945 166.106 8.4692V7.5573C166.106 7.46706 166.07 7.3805 166.006 7.31669C165.942 7.25287 165.856 7.21704 165.766 7.21704H160.839C160.748 7.21704 160.662 7.25287 160.598 7.31669C160.534 7.3805 160.498 7.46706 160.498 7.5573V8.79925C160.498 8.95237 160.498 9.07486 160.498 9.22117C160.489 9.58846 160.556 9.95368 160.697 10.2931C160.838 10.6325 161.048 10.9385 161.315 11.1913C161.335 11.2117 161.363 11.2389 161.403 11.273L161.465 11.3274C161.866 11.6881 162.54 11.8922 163.465 11.9399C164.28 11.9971 165.043 12.362 165.599 12.9606C165.904 13.2478 166.146 13.5956 166.309 13.9818C166.472 14.3679 166.552 14.7839 166.545 15.203C166.547 15.6231 166.464 16.0393 166.299 16.4256C166.133 16.812 165.891 17.1602 165.585 17.4487C165.289 17.7546 164.932 17.9962 164.538 18.1583C164.144 18.3205 163.721 18.3997 163.295 18.3912C162.873 18.3978 162.455 18.3195 162.064 18.1611C161.672 18.0027 161.317 17.7674 161.019 17.4691C160.713 17.1886 160.468 16.8481 160.299 16.4688C160.131 16.0894 160.042 15.6794 160.039 15.2642C160.039 15.174 160.003 15.0874 159.939 15.0236C159.875 14.9598 159.789 14.924 159.699 14.924H158.807C158.717 14.924 158.63 14.9598 158.567 15.0236C158.503 15.0874 158.467 15.174 158.467 15.2642C158.472 15.8836 158.603 16.4955 158.851 17.0628C159.1 17.6301 159.461 18.1411 159.913 18.5648C160.82 19.4465 162.036 19.9375 163.301 19.9324C164.566 19.9273 165.778 19.4265 166.677 18.5376C167.483 17.764 167.983 16.7264 168.087 15.6144C168.191 14.5023 167.891 13.3901 167.242 12.4809Z" fill="#FFCA26"/>
<path d="M207.125 6.63162C206.283 6.62081 205.449 6.78045 204.671 7.10091C203.893 7.42138 203.188 7.89603 202.599 8.49625C201.994 9.08542 201.516 9.79261 201.195 10.574C200.875 11.3554 200.718 12.1943 200.734 13.0388V19.6262C200.734 19.7165 200.77 19.803 200.834 19.8668C200.898 19.9306 200.984 19.9665 201.075 19.9665H202.031C202.121 19.9665 202.208 19.9306 202.271 19.8668C202.335 19.803 202.371 19.7165 202.371 19.6262V13.0422C202.367 12.4126 202.489 11.7885 202.728 11.2061C202.967 10.6237 203.319 10.0944 203.764 9.64887C204.209 9.20337 204.737 8.85047 205.32 8.61058C205.902 8.37069 206.526 8.24856 207.155 8.25127C207.335 8.25127 207.495 8.25127 207.679 8.27509C207.726 8.27788 207.772 8.27113 207.816 8.25528C207.859 8.23943 207.899 8.21482 207.933 8.18294C207.967 8.15107 207.994 8.1126 208.012 8.06992C208.03 8.02725 208.04 7.98128 208.04 7.93483V6.97869C208.04 6.8951 208.01 6.81421 207.955 6.75145C207.9 6.68869 207.823 6.64846 207.74 6.63843C207.529 6.64183 207.329 6.63162 207.125 6.63162Z" fill="#FFCA26"/>
<path d="M15.5636 4.73985L20.1435 2.53836V2.13004L15.3152 4.19203C14.982 4.33425 14.6068 4.34292 14.2673 4.21625C13.9278 4.08958 13.65 3.83727 13.4914 3.51151L11.7901 0H11.3239L12.93 3.74288C13.0732 4.07653 13.0824 4.45252 12.9557 4.79279C12.829 5.13305 12.576 5.41143 12.2494 5.57009L0 11.4566L12.5046 6.1145C12.8378 5.97142 13.2133 5.96231 13.553 6.08906C13.8927 6.21582 14.1705 6.46868 14.3284 6.79503L20.1401 18.8914V18.8709L14.8729 6.54664C14.7356 6.21422 14.7307 5.8419 14.8591 5.50596C14.9875 5.17002 15.2396 4.89592 15.5636 4.73985Z" fill="#FFCA26"/>
<path d="M5.26041 17.7618V3.88252C5.26041 3.72279 5.19696 3.5696 5.08401 3.45666C4.97107 3.34371 4.81788 3.28027 4.65815 3.28027H4.27365C4.11392 3.28027 3.96073 3.34371 3.84778 3.45666C3.73484 3.5696 3.67139 3.72279 3.67139 3.88252V19.3508C3.67139 19.5106 3.73484 19.6638 3.84778 19.7767C3.96073 19.8897 4.11392 19.9531 4.27365 19.9531H14.7197C14.7988 19.9531 14.8771 19.9375 14.9502 19.9073C15.0233 19.877 15.0896 19.8326 15.1456 19.7767C15.2015 19.7208 15.2459 19.6544 15.2761 19.5813C15.3064 19.5083 15.322 19.4299 15.322 19.3508V18.9664C15.322 18.8873 15.3064 18.8089 15.2761 18.7359C15.2459 18.6628 15.2015 18.5964 15.1456 18.5405C15.0896 18.4846 15.0233 18.4402 14.9502 18.4099C14.8771 18.3797 14.7988 18.3641 14.7197 18.3641H5.87288C5.79294 18.3654 5.71352 18.3509 5.63927 18.3212C5.56502 18.2916 5.49741 18.2474 5.4404 18.1913C5.38339 18.1353 5.33811 18.0684 5.30721 17.9947C5.27631 17.9209 5.2604 17.8418 5.26041 17.7618Z" fill="#FFCA26"/>
<path d="M27.7551 13.26C27.7558 14.5807 27.2714 15.8557 26.3941 16.843C26.0131 17.3013 25.536 17.6702 24.9964 17.9233C24.4568 18.1765 23.8682 18.3077 23.2722 18.3077C22.6762 18.3077 22.0875 18.1765 21.548 17.9233C21.0084 17.6702 20.5312 17.3013 20.1503 16.843C19.2747 15.8507 18.7971 14.5696 18.8096 13.2464V7.20673C18.8096 7.07407 18.7569 6.94685 18.6631 6.85305C18.5693 6.75925 18.4421 6.70655 18.3095 6.70655H17.782C17.6494 6.70655 17.5222 6.75925 17.4284 6.85305C17.3346 6.94685 17.2819 7.07407 17.2819 7.20673V13.2396C17.2641 14.9795 17.8935 16.6639 19.0478 17.9658C19.5658 18.5861 20.2137 19.0851 20.9457 19.4275C21.6777 19.7699 22.476 19.9474 23.2841 19.9474C24.0922 19.9474 24.8905 19.7699 25.6225 19.4275C26.3545 19.0851 27.0024 18.5861 27.5204 17.9658C28.6753 16.6649 29.308 14.9826 29.2965 13.243V7.20673C29.2965 7.07407 29.2438 6.94685 29.15 6.85305C29.0562 6.75925 28.929 6.70655 28.7963 6.70655H28.2587C28.1928 6.70611 28.1273 6.71871 28.0663 6.74365C28.0052 6.76858 27.9496 6.80536 27.9028 6.85185C27.856 6.89834 27.8189 6.95361 27.7935 7.01452C27.7682 7.07543 27.7551 7.14076 27.7551 7.20673V13.26Z" fill="#FFCA26"/>
<path d="M48.4227 8.14589C47.8816 7.62003 47.2301 7.22129 46.5156 6.97869C45.8011 6.73609 45.0415 6.65569 44.2921 6.74335C43.5427 6.831 42.8222 7.0845 42.1829 7.48543C41.5437 7.88636 41.0018 8.42466 40.5967 9.0612C40.1406 8.33477 39.5071 7.73646 38.7558 7.32271C38.0045 6.90896 37.1602 6.69341 36.3025 6.69637C35.6544 6.68892 35.0112 6.80952 34.4097 7.05125C33.8083 7.29299 33.2605 7.65112 32.7978 8.10506V7.34288C32.7983 7.27288 32.7849 7.20348 32.7584 7.13869C32.7319 7.07389 32.6929 7.01499 32.6436 6.96534C32.5942 6.91568 32.5356 6.87628 32.4709 6.84939C32.4063 6.8225 32.337 6.80866 32.267 6.80866H31.8009C31.6592 6.80866 31.5233 6.86494 31.4231 6.96513C31.3229 7.06531 31.2667 7.20119 31.2667 7.34288V19.4222C31.2648 19.4933 31.2773 19.5641 31.3034 19.6303C31.3295 19.6965 31.3686 19.7568 31.4184 19.8076C31.4683 19.8584 31.5278 19.8986 31.5935 19.9259C31.6592 19.9533 31.7297 19.9671 31.8009 19.9666H32.2772C32.418 19.9666 32.553 19.9107 32.6526 19.8111C32.7521 19.7116 32.808 19.5766 32.808 19.4358V11.6506C32.8039 11.1975 32.895 10.7486 33.0756 10.3329C33.2561 9.91734 33.522 9.54432 33.8561 9.23812C34.3433 8.75837 34.9601 8.4315 35.6307 8.29766C36.3013 8.16383 36.9963 8.2289 37.6304 8.48484C38.2645 8.74079 38.81 9.17646 39.1997 9.73829C39.5895 10.3001 39.8066 10.9636 39.8242 11.6472V19.4222C39.8242 19.563 39.8802 19.698 39.9797 19.7975C40.0793 19.8971 40.2143 19.953 40.3551 19.953H40.8348C40.9756 19.953 41.1106 19.8971 41.2102 19.7975C41.3097 19.698 41.3656 19.563 41.3656 19.4222V11.654C41.3673 11.2016 41.4608 10.7542 41.6403 10.339C41.8199 9.92374 42.0818 9.54923 42.4102 9.23812C43.0691 8.59263 43.9548 8.23112 44.8771 8.23112C45.7995 8.23112 46.6852 8.59263 47.344 9.23812C47.672 9.54819 47.9336 9.92156 48.1132 10.3356C48.2927 10.7497 48.3864 11.1959 48.3887 11.6472V19.4222C48.3887 19.563 48.4446 19.698 48.5441 19.7975C48.6437 19.8971 48.7787 19.953 48.9195 19.953H49.389C49.5298 19.953 49.6648 19.8971 49.7644 19.7975C49.8639 19.698 49.9198 19.563 49.9198 19.4222V11.671C49.9233 11.0125 49.7923 10.3602 49.5349 9.75402C49.2775 9.14787 48.899 8.60066 48.4227 8.14589Z" fill="#FFCA26"/>
<path d="M53.2137 6.83936H52.1078C51.9782 6.83936 51.873 6.94447 51.873 7.07414V19.7217C51.873 19.8513 51.9782 19.9565 52.1078 19.9565H53.2137C53.3433 19.9565 53.4485 19.8513 53.4485 19.7217V7.07414C53.4485 6.94447 53.3433 6.83936 53.2137 6.83936Z" fill="#FFCA26"/>
<path d="M95.3925 6.83936H94.2867C94.157 6.83936 94.0519 6.94447 94.0519 7.07414V19.7217C94.0519 19.8513 94.157 19.9565 94.2867 19.9565H95.3925C95.5222 19.9565 95.6273 19.8513 95.6273 19.7217V7.07414C95.6273 6.94447 95.5222 6.83936 95.3925 6.83936Z" fill="#FFCA26"/>
<path d="M65.6571 8.69369C65.1391 8.0734 64.4912 7.57442 63.7592 7.23202C63.0272 6.88962 62.2289 6.71216 61.4208 6.71216C60.6127 6.71216 59.8144 6.88962 59.0824 7.23202C58.3504 7.57442 57.7025 8.0734 57.1845 8.69369C57.1029 8.78556 57.0246 8.88084 56.9463 8.97612V7.2748C56.9463 7.16168 56.9016 7.05314 56.822 6.97284C56.7423 6.89253 56.6341 6.84697 56.521 6.84607H55.8405C55.7274 6.84697 55.6192 6.89253 55.5395 6.97284C55.4599 7.05314 55.4152 7.16168 55.4152 7.2748V19.5549C55.4152 19.6677 55.46 19.7759 55.5397 19.8556C55.6195 19.9354 55.7277 19.9802 55.8405 19.9802H56.521C56.6338 19.9802 56.742 19.9354 56.8218 19.8556C56.9015 19.7759 56.9463 19.6677 56.9463 19.5549V13.4301C56.948 12.1088 57.432 10.8335 58.3074 9.84378C58.689 9.38589 59.1666 9.01749 59.7064 8.76468C60.2462 8.51186 60.8349 8.38082 61.431 8.38082C62.0271 8.38082 62.6158 8.51186 63.1556 8.76468C63.6954 9.01749 64.173 9.38589 64.5546 9.84378C65.4302 10.8374 65.9076 12.1195 65.8952 13.4438V19.5447C65.8952 19.6575 65.9401 19.7656 66.0198 19.8454C66.0996 19.9252 66.2078 19.97 66.3206 19.97H67.0011C67.0572 19.9704 67.1129 19.9598 67.1649 19.9386C67.2169 19.9174 67.2642 19.8862 67.3041 19.8466C67.3439 19.8071 67.3755 19.76 67.3971 19.7082C67.4187 19.6564 67.4298 19.6008 67.4298 19.5447V13.4233C67.4449 11.6817 66.8132 9.99635 65.6571 8.69369Z" fill="#FFCA26"/>
<path d="M76.1201 6.49903C75.0135 6.49741 73.9235 6.76885 72.9468 7.28927C71.9702 7.80969 71.137 8.56302 70.5211 9.48249C69.9053 10.402 69.5258 11.4592 69.4163 12.5604C69.3068 13.6617 69.4707 14.7729 69.8934 15.7956C70.3162 16.8184 70.9847 17.721 71.8398 18.4236C72.6948 19.1262 73.71 19.6069 74.7953 19.8232C75.8806 20.0395 77.0026 19.9848 78.0616 19.6638C79.1207 19.3427 80.0843 18.7654 80.8668 17.9829C80.9001 17.9502 80.9422 17.9281 80.988 17.9192C81.0338 17.9102 81.0811 17.915 81.1243 17.9327C81.1674 17.9505 81.2043 17.9805 81.2305 18.019C81.2567 18.0576 81.2711 18.103 81.2717 18.1496V19.5685C81.2717 19.6317 81.2968 19.6923 81.3415 19.7369C81.3862 19.7816 81.4467 19.8067 81.5099 19.8067H82.5987C82.6619 19.8067 82.7225 19.7816 82.7672 19.7369C82.8118 19.6923 82.8369 19.6317 82.8369 19.5685V13.2294C82.8383 12.3463 82.6655 11.4717 82.3286 10.6554C81.9917 9.83908 81.4972 9.09722 80.8734 8.47215C80.2496 7.84709 79.5088 7.3511 78.6932 7.01254C77.8776 6.67398 77.0032 6.49948 76.1201 6.49903ZM76.1201 18.3878C74.9298 18.3836 73.7778 17.9671 72.86 17.2092C71.9422 16.4512 71.3154 15.3987 71.0862 14.2306C70.8571 13.0626 71.0398 11.8512 71.6033 10.8027C72.1667 9.75421 73.0761 8.93334 74.1766 8.47982C75.2772 8.0263 76.5008 7.96814 77.6394 8.31525C78.778 8.66236 79.7611 9.39331 80.4215 10.3837C81.0818 11.374 81.3786 12.5626 81.2612 13.7471C81.1439 14.9316 80.6198 16.0389 79.778 16.8804C79.3035 17.3709 78.7327 17.758 78.1015 18.0174C77.4703 18.2768 76.7922 18.4029 76.1099 18.3878H76.1201Z" fill="#FFCA26"/>
<path d="M91.1971 6.62151C90.3553 6.60925 89.5197 6.76821 88.7412 7.08875C87.9627 7.40928 87.2574 7.8847 86.6682 8.48614C86.0629 9.07595 85.5851 9.78374 85.2644 10.5657C84.9436 11.3476 84.7868 12.187 84.8036 13.032V19.6263C84.8036 19.7166 84.8394 19.8031 84.9033 19.8669C84.9671 19.9307 85.0536 19.9666 85.1438 19.9666H86.1C86.1902 19.9666 86.2768 19.9307 86.3406 19.8669C86.4044 19.8031 86.4402 19.7166 86.4402 19.6263V13.0354C86.4357 12.405 86.5564 11.7799 86.7953 11.1965C87.0342 10.613 87.3865 10.0828 87.8318 9.63652C88.2771 9.19024 88.8066 8.8368 89.3895 8.59669C89.9725 8.35658 90.5973 8.23459 91.2277 8.23775C91.4081 8.23775 91.568 8.23774 91.7517 8.26496C91.7984 8.26823 91.8452 8.26186 91.8893 8.24623C91.9334 8.2306 91.9737 8.20607 92.0079 8.17414C92.0421 8.14221 92.0693 8.10358 92.0878 8.06067C92.1064 8.01775 92.1159 7.97146 92.1158 7.9247V6.96856C92.1164 6.88497 92.0862 6.80408 92.031 6.74132C91.9758 6.67856 91.8994 6.63833 91.8164 6.6283C91.5986 6.6317 91.4013 6.62151 91.1971 6.62151Z" fill="#FFCA26"/>
<path d="M110.521 11.8922C110.571 11.8909 110.62 11.8785 110.664 11.856C110.709 11.8336 110.748 11.8015 110.779 11.7622C110.81 11.7229 110.832 11.6773 110.843 11.6286C110.854 11.5799 110.854 11.5294 110.844 11.4805C110.468 10.0385 109.625 8.76122 108.449 7.84697C107.272 6.93273 105.826 6.43273 104.335 6.42466C102.845 6.41659 101.394 6.90088 100.207 7.80232C99.0205 8.70377 98.1646 9.9719 97.7726 11.4097C97.3806 12.8475 97.4744 14.3746 98.0394 15.7536C98.6045 17.1326 99.6091 18.2865 100.897 19.0359C102.185 19.7853 103.685 20.0884 105.163 19.898C106.641 19.7076 108.015 19.0343 109.071 17.9829C109.861 17.2695 110.42 16.3355 110.674 15.3017C110.817 14.4246 110.903 13.5392 110.932 12.651C110.932 12.5608 110.897 12.4742 110.833 12.4104C110.769 12.3466 110.682 12.3108 110.592 12.3108H109.653C109.566 12.3106 109.482 12.3442 109.418 12.4043C109.355 12.4645 109.317 12.5467 109.313 12.634C109.306 13.4153 109.221 14.1939 109.058 14.958C108.868 15.686 108.49 16.3513 107.962 16.8873C107.238 17.6021 106.319 18.0871 105.321 18.2815C104.322 18.4758 103.289 18.3708 102.35 17.9797C101.411 17.5885 100.608 16.9286 100.043 16.0829C99.4779 15.2372 99.1752 14.2433 99.173 13.2261C99.1715 12.8444 99.2092 12.4636 99.2852 12.0896C99.2975 12.0383 99.3266 11.9926 99.368 11.9599C99.4093 11.9272 99.4605 11.9093 99.5132 11.9092L110.521 11.8922ZM104.318 8.05748C104.997 8.04576 105.672 8.17381 106.3 8.43369C106.928 8.69357 107.496 9.07975 107.969 9.56824C108.108 9.70775 108.238 9.85066 108.36 9.99698C108.387 10.0319 108.404 10.0737 108.409 10.1177C108.414 10.1616 108.406 10.2061 108.387 10.246C108.368 10.2859 108.338 10.3198 108.301 10.3437C108.264 10.3676 108.221 10.3807 108.176 10.3815H100.456C100.411 10.3814 100.368 10.3686 100.33 10.3447C100.293 10.3208 100.263 10.2867 100.244 10.2464C100.225 10.2061 100.218 10.1612 100.223 10.1171C100.229 10.0729 100.247 10.0313 100.275 9.99698C100.397 9.84755 100.527 9.70445 100.663 9.56824C101.136 9.079 101.705 8.69237 102.333 8.43244C102.962 8.17252 103.637 8.04488 104.318 8.05748Z" fill="#FFCA26"/>
<path d="M121.654 12.4808C121.214 11.8739 120.644 11.3729 119.986 11.0144C119.328 10.6559 118.598 10.4489 117.85 10.4086C117.48 10.4218 117.117 10.3009 116.829 10.0683C116.712 9.95842 116.62 9.82546 116.557 9.67784C116.494 9.53023 116.463 9.37121 116.465 9.21086V9.11898C116.465 9.02874 116.501 8.94219 116.565 8.87838C116.628 8.81457 116.715 8.77872 116.805 8.77872H120.174C120.264 8.77872 120.351 8.74286 120.414 8.67905C120.478 8.61524 120.514 8.5287 120.514 8.43845V7.52996C120.514 7.43972 120.478 7.35317 120.414 7.28936C120.351 7.22555 120.264 7.1897 120.174 7.1897H115.243C115.153 7.1897 115.067 7.22555 115.003 7.28936C114.939 7.35317 114.903 7.43972 114.903 7.52996V8.7719C114.903 8.92502 114.903 9.04753 114.903 9.19385C114.893 9.56165 114.961 9.92737 115.102 10.2673C115.242 10.6073 115.453 10.9139 115.72 11.1674L115.808 11.249L115.873 11.3001C116.274 11.6607 116.948 11.8683 117.874 11.9159C118.689 11.9737 119.453 12.3384 120.01 12.9367C120.313 13.229 120.554 13.5792 120.718 13.9665C120.883 14.3538 120.967 14.7702 120.967 15.191C120.967 15.6117 120.883 16.0281 120.718 16.4154C120.554 16.8027 120.313 17.1529 120.01 17.4452C119.715 17.7527 119.359 17.9955 118.965 18.1583C118.571 18.3212 118.147 18.4004 117.721 18.3911C117.298 18.3982 116.879 18.3198 116.488 18.1608C116.097 18.0017 115.742 17.7653 115.444 17.4656C115.137 17.1853 114.891 16.8444 114.721 16.4643C114.552 16.0843 114.463 15.6733 114.461 15.2573C114.456 15.1706 114.417 15.0893 114.354 15.0298C114.291 14.9704 114.207 14.9373 114.121 14.9375H113.226C113.135 14.9375 113.049 14.9733 112.985 15.0371C112.921 15.1009 112.885 15.1875 112.885 15.2777C112.891 15.8975 113.022 16.5098 113.27 17.0777C113.519 17.6455 113.88 18.1571 114.331 18.5817C115.239 19.4638 116.457 19.955 117.723 19.9499C118.989 19.9448 120.202 19.4438 121.103 18.5544C121.906 17.776 122.403 16.7348 122.503 15.6205C122.603 14.5062 122.299 13.3931 121.647 12.4842L121.654 12.4808Z" fill="#FFCA26"/>
</svg>
